# xmcd CD database file
#
# Track frame offsets:
#	150
#	10396
#	25939
#	38400
#	52222
#	67081
#	79132
#	96175
#	109845
#	123924
#	139670
#	152277
#	165721
#	178116
#	191424
#	206312
#	220954
#	238289
#	253771
#	266727
#	280018
#	294725
#	306267
#	321496
#	339722
#
# Disc length: 4717 seconds
#
# Revision: 1
# Processed by: cddbd v1.5.2PL0 Copyright (c) Steve Scherf et al.
# Submitted via: CDex 1.51
#
DISCID=7a126b19
DTITLE=Various Artist - ZoomTP60-D-6
DYEAR=1900
DGENRE=Blues
TTITLE0=Tom Jones - It's Not Unusual
TTITLE1=Elvis Presley - It's Now Or Never
TTITLE2=Roy Orbison - It's Over
TTITLE3=The Four Tops - it's The Same Old Song
TTITLE4=The bee Gees - I've Gotta Get A Message To You
TTITLE5=Elvis Presley - Jailhouse Rock
TTITLE6=The Casuals - Jesamine
TTITLE7=Martha and The Vandellas - Jimmy Mack
TTITLE8=John Fred and The Playboys - Judy In Disguise
TTITLE9=The Rolling Stones - Jumping Jack Flash
TTITLE10=The Hollies - Just One Look
TTITLE11=Spencer Davis Group - Keep On Running
TTITLE12=Mary Hopkin - Knock Knock Who's There
TTITLE13=The Monkees - Last Train To Clarksville
TTITLE14=The Small Faces - Lazy Sunday
TTITLE15=The Shangri-Las - Leader Of The Pack
TTITLE16=The Beatles - Let It Be
TTITLE17=The Four Seasons - Let's Hang On
TTITLE18=Brenda Lee - Let's Jump The Broomstick
TTITLE19=Sandie Shaw - Long Live Love
TTITLE20=The Troggs - Love Is All Around
TTITLE21=The Beatles - Love Me Do
TTITLE22=The Walker Brothers - Make It Easy On Yourself
TTITLE23=Donovan - Mellow Yellow
TTITLE24=Manfred Mann - Mighty Quinn
EXTD=
EXTT0=
EXTT1=
EXTT2=
EXTT3=
EXTT4=
EXTT5=
EXTT6=
EXTT7=
EXTT8=
EXTT9=
EXTT10=
EXTT11=
EXTT12=
EXTT13=
EXTT14=
EXTT15=
EXTT16=
EXTT17=
EXTT18=
EXTT19=
EXTT20=
EXTT21=
EXTT22=
EXTT23=
EXTT24=
PLAYORDER=
